<svg width="34" height="34" viewBox="0 0 34 34" fill="none" xmlns="http://www.w3.org/2000/svg">
<path d="M13.5291 21.4625L25.5353 9.45625C25.8187 9.17292 26.1492 9.03125 26.527 9.03125C26.9048 9.03125 27.2353 9.17292 27.5187 9.45625C27.802 9.73958 27.9437 10.0763 27.9437 10.4663C27.9437 10.8564 27.802 11.1926 27.5187 11.475L14.5208 24.5083C14.2374 24.7917 13.9069 24.9333 13.5291 24.9333C13.1513 24.9333 12.8208 24.7917 12.5374 24.5083L6.44576 18.4167C6.16243 18.1333 6.02643 17.7971 6.03776 17.408C6.0491 17.0189 6.1969 16.6822 6.48118 16.3979C6.76546 16.1136 7.10215 15.972 7.49126 15.9729C7.88037 15.9739 8.2166 16.1155 8.49993 16.3979L13.5291 21.4625Z" fill="#1B3950"/>
</svg>
