<svg width="34" height="34" viewBox="0 0 34 34" fill="none" xmlns="http://www.w3.org/2000/svg">
<path d="M8.49967 14.1669V11.3335C8.49967 10.8509 8.53887 10.3787 8.61726 9.91687M25.4997 14.1669V11.3335C25.4998 9.60696 24.9741 7.92129 23.9925 6.50085C23.011 5.08041 21.6202 3.99257 20.0051 3.38208C18.3901 2.77159 16.6274 2.66742 14.9517 3.08341C13.276 3.49941 11.7667 4.41586 10.6247 5.71079M15.583 31.1669H11.333C7.32667 31.1669 5.32209 31.1669 4.07826 29.9216C2.83301 28.6778 2.83301 26.6732 2.83301 22.6669C2.83301 18.6605 2.83301 16.656 4.07826 15.4121C5.32209 14.1669 7.32667 14.1669 11.333 14.1669H22.6663C26.6727 14.1669 28.6773 14.1669 29.9211 15.4121C31.1663 16.656 31.1663 18.6605 31.1663 22.6669C31.1663 26.6732 31.1663 28.6778 29.9211 29.9216C28.6773 31.1669 26.6727 31.1669 22.6663 31.1669H21.2497" stroke="#1B3950" stroke-width="2.125" stroke-linecap="round"/>
</svg>
