<svg width="35" height="41" viewBox="0 0 35 41" fill="none" xmlns="http://www.w3.org/2000/svg">
<path d="M9.02535 16.9224C7.45933 14.9971 5.98918 14.5836 4.6149 15.6821C2.55255 17.3297 1.96066 23.0742 3.61944 28.1397C5.27823 33.2051 8.50582 40.1009 15.0204 40.1009C21.5349 40.1009 23.0749 33.1606 25.732 28.9654C28.3899 24.7701 29.7954 20.7224 27.1913 15.6821" stroke="#1B3950" stroke-width="1.75" stroke-linecap="round" stroke-linejoin="round"/>
<path d="M5.74101 15.0837C4.51455 13.2098 3.27755 11.3429 2.03007 9.48294C0.68857 7.49295 4.1184 4.92035 5.74101 6.67006C6.82274 7.83714 8.2598 9.55562 10.0522 11.8255" stroke="#1B3950" stroke-width="1.75" stroke-linecap="round"/>
<path d="M9.47508 22.1372C9.02544 16.5114 9.39096 12.8484 10.5717 11.1482C12.3436 8.59695 15.6343 7.63025 18.7339 7.63025C20.5788 7.63025 22.2636 8.41604 23.7881 9.98762" stroke="#1B3950" stroke-width="1.75" stroke-linecap="round" stroke-linejoin="round"/>
<path d="M33.5731 10.0517C34.1168 11.9405 33.2299 13.667 30.4968 14.0576C27.7637 14.4482 25.7162 15.8222 24.2392 16.9781C22.7623 18.1341 20.1201 21.6409 19.5978 23.4008C19.0754 25.1607 16.0946 23.5428 15.294 22.8395C14.4934 22.1373 13.7057 20.5981 15.294 18.9885C16.8823 17.3789 16.5381 17.0579 16.5381 15.426C16.5381 13.7932 25.2235 8.39381 30.1155 7.90026C31.2028 7.83717 33.0304 8.16188 33.5731 10.0517Z" stroke="#1B3950" stroke-width="1.75"/>
<path d="M16.8808 2.06107V6.94373M14.375 8.29359C11.5751 4.77438 9.31761 2.81068 7.60254 2.40248M11.3107 4.87118L12.2291 1.09808M28.5749 8.29359C28.2762 9.3178 28.2762 10.2783 28.5749 11.1751C28.8742 12.0719 29.5147 13.0328 30.4962 14.0576" stroke="#1B3950" stroke-width="1.75" stroke-linecap="round"/>
</svg>
