<svg width="32" height="32" viewBox="0 0 32 32" fill="none" xmlns="http://www.w3.org/2000/svg">
<path d="M30.746 15.6835C30.2335 14.892 25.7215 7.864 22.0215 6.727C21.5405 6.5765 21.004 6.5 20.426 6.5C19.2005 6.5 17.768 6.8425 16.168 7.5175L16.0005 7.5825H15.9995L15.832 7.5175C14.2325 6.8425 12.8 6.5 11.574 6.5C10.996 6.5 10.4595 6.5765 9.97853 6.7275C6.27853 7.8645 1.76603 14.8925 1.25403 15.684C0.87403 16.271 0.938531 16.546 1.32653 17.085C1.78353 17.719 2.17053 18.3995 2.55003 19.141C4.07703 22.1215 5.80703 25.5 15.9995 25.5H16.0005C26.193 25.5 27.923 22.1215 29.4495 19.1405C29.83 18.399 30.2165 17.718 30.6735 17.0845C31.061 16.5455 31.126 16.2705 30.746 15.6835ZM16.0005 24.3125C15.9999 24.3125 15.9999 24.3125 16.0005 24.3125H15.9995C5.28853 24.3125 4.76553 20.6285 2.99603 17.5135C3.71503 17.44 4.44603 17.1985 5.21753 16.864C8.05153 19.1805 11.3355 18.0385 15.999 18.0385H16.0005C20.664 18.0385 23.948 19.1805 26.782 16.864C27.5535 17.1985 28.2845 17.4395 29.0035 17.5135C27.2345 20.6285 26.7115 24.3125 16.0005 24.3125ZM8.03153 15.5055C10.133 14.495 12.6905 13.4685 16 13.4685C19.309 13.4685 21.867 14.495 23.969 15.5055H8.03153ZM29.4435 16.3535C26.6015 16.3535 22.84 12.2805 16.0005 12.2805H15.9995C9.16003 12.2805 5.39853 16.3535 2.55653 16.3535C2.44186 16.3535 2.3282 16.3467 2.21553 16.333C2.21553 16.333 6.90303 8.911 10.31 7.864C10.6775 7.749 11.098 7.6875 11.5735 7.6875C12.6 7.6875 13.88 7.9745 15.4155 8.6245C15.607 8.698 15.803 8.777 15.999 8.862H16C16.196 8.777 16.392 8.698 16.5835 8.6245C18.1185 7.9745 19.399 7.6875 20.4255 7.6875C20.901 7.6875 21.3215 7.749 21.689 7.864C25.096 8.9115 29.7835 16.333 29.7835 16.333C29.6707 16.3463 29.5572 16.3531 29.4435 16.3535Z" fill="#1B3950"/>
</svg>
