<svg width="34" height="34" viewBox="0 0 34 34" fill="none" xmlns="http://www.w3.org/2000/svg">
<path d="M3.84473 32.0498C3.17961 31.9299 2.54523 31.6772 1.97754 31.3056L5.85938 27.4209L3.84473 32.0498Z" fill="white" stroke="#1B3950" stroke-width="1.75"/>
<path d="M11.9724 20.075L1.20509 30.8409C1.13273 30.9128 1.0771 30.9998 1.04212 31.0957C1.00715 31.1915 0.993701 31.2939 1.00273 31.3955C1.01175 31.4972 1.04303 31.5956 1.09434 31.6838C1.14566 31.7719 1.21575 31.8478 1.29965 31.9058C2.58864 32.8035 5.66419 34.254 9.01907 30.8976C10.0467 29.6573 10.5738 28.0779 10.4972 26.4691C10.4972 23.5172 13.9408 22.042 13.9408 22.042" stroke="#1B3950" stroke-width="1.75" stroke-linecap="round" stroke-linejoin="round"/>
<path d="M32.1863 1.81669C32.7076 2.33854 33.0005 3.046 33.0005 3.78364C33.0005 4.52127 32.7076 5.22874 32.1863 5.75059L15.9066 22.0434C15.7774 22.1726 15.6241 22.275 15.4554 22.3449C15.2866 22.4148 15.1058 22.4508 14.9231 22.4508C14.7405 22.4508 14.5596 22.4148 14.3909 22.3449C14.2221 22.275 14.0688 22.1726 13.9396 22.0434L11.9712 20.075C11.7107 19.814 11.5645 19.4603 11.5645 19.0915C11.5645 18.7228 11.7107 18.3691 11.9712 18.1081L28.251 1.81669C28.5091 1.55781 28.8158 1.35242 29.1534 1.21228C29.4911 1.07214 29.8531 1 30.2186 1C30.5842 1 30.9462 1.07214 31.2839 1.21228C31.6215 1.35242 31.9282 1.55781 32.1863 1.81669Z" stroke="#1B3950" stroke-width="1.75" stroke-linecap="round" stroke-linejoin="round"/>
</svg>
