<svg width="34" height="33" viewBox="0 0 34 33" fill="none" xmlns="http://www.w3.org/2000/svg">
<path d="M33.0332 15.2267H25.6212C25.6212 17.4949 24.7201 19.6702 23.1163 21.2741C21.5124 22.878 19.3371 23.779 17.0688 23.779C14.8006 23.779 12.6253 22.878 11.0214 21.2741C9.41755 19.6702 8.5165 17.4949 8.5165 15.2267H1.0332" stroke="#1B3950" stroke-width="1.5" stroke-linecap="round" stroke-linejoin="round"/>
<path d="M11.7236 14.1577C11.7236 15.5753 12.2868 16.9349 13.2892 17.9373C14.2916 18.9397 15.6512 19.5029 17.0688 19.5029C18.4865 19.5029 19.8461 18.9397 20.8485 17.9373C21.8509 16.9349 22.4141 15.5753 22.4141 14.1577C22.4141 10.3732 18.2277 9.10037 19.4877 2.92986C19.533 2.71355 19.5102 2.48851 19.4223 2.28572C19.3344 2.08294 19.1859 1.91237 18.9971 1.79749C18.8083 1.68261 18.5885 1.62908 18.368 1.64425C18.1475 1.65942 17.9372 1.74255 17.7659 1.8822C15.9873 3.41883 14.5359 5.29739 13.4979 7.4062C12.4599 9.515 11.8565 11.811 11.7236 14.1577Z" stroke="#1B3950" stroke-width="1.5" stroke-linecap="round" stroke-linejoin="round"/>
<path d="M2.1019 31.7968C1.96014 31.7968 1.82418 31.7405 1.72394 31.6403C1.6237 31.54 1.56738 31.4041 1.56738 31.2623C1.56738 31.1206 1.6237 30.9846 1.72394 30.8844C1.82418 30.7841 1.96014 30.7278 2.1019 30.7278M2.1019 31.7968C2.24367 31.7968 2.37963 31.7405 2.47987 31.6403C2.58011 31.54 2.63643 31.4041 2.63643 31.2623C2.63643 31.1206 2.58011 30.9846 2.47987 30.8844C2.37963 30.7841 2.24367 30.7278 2.1019 30.7278M11.7233 31.7968C11.5815 31.7968 11.4456 31.7405 11.3453 31.6403C11.2451 31.54 11.1888 31.4041 11.1888 31.2623C11.1888 31.1206 11.2451 30.9846 11.3453 30.8844C11.4456 30.7841 11.5815 30.7278 11.7233 30.7278M11.7233 31.7968C11.865 31.7968 12.001 31.7405 12.1012 31.6403C12.2015 31.54 12.2578 31.4041 12.2578 31.2623C12.2578 31.1206 12.2015 30.9846 12.1012 30.8844C12.001 30.7841 11.865 30.7278 11.7233 30.7278M22.4137 31.7968C22.2719 31.7968 22.136 31.7405 22.0357 31.6403C21.9355 31.54 21.8792 31.4041 21.8792 31.2623C21.8792 31.1206 21.9355 30.9846 22.0357 30.8844C22.136 30.7841 22.2719 30.7278 22.4137 30.7278M22.4137 31.7968C22.5555 31.7968 22.6914 31.7405 22.7917 31.6403C22.8919 31.54 22.9482 31.4041 22.9482 31.2623C22.9482 31.1206 22.8919 30.9846 22.7917 30.8844C22.6914 30.7841 22.5555 30.7278 22.4137 30.7278M32.0351 31.7968C31.8933 31.7968 31.7574 31.7405 31.6571 31.6403C31.5569 31.54 31.5006 31.4041 31.5006 31.2623C31.5006 31.1206 31.5569 30.9846 31.6571 30.8844C31.7574 30.7841 31.8933 30.7278 32.0351 30.7278M32.0351 31.7968C32.1769 31.7968 32.3128 31.7405 32.4131 31.6403C32.5133 31.54 32.5696 31.4041 32.5696 31.2623C32.5696 31.1206 32.5133 30.9846 32.4131 30.8844C32.3128 30.7841 32.1769 30.7278 32.0351 30.7278M32.0351 21.1064C31.8933 21.1064 31.7574 21.0501 31.6571 20.9499C31.5569 20.8496 31.5006 20.7137 31.5006 20.5719C31.5006 20.4301 31.5569 20.2942 31.6571 20.1939C31.7574 20.0937 31.8933 20.0374 32.0351 20.0374M32.0351 21.1064C32.1769 21.1064 32.3128 21.0501 32.4131 20.9499C32.5133 20.8496 32.5696 20.7137 32.5696 20.5719C32.5696 20.4301 32.5133 20.2942 32.4131 20.1939C32.3128 20.0937 32.1769 20.0374 32.0351 20.0374M27.7589 26.4516C27.6172 26.4516 27.4812 26.3953 27.381 26.2951C27.2807 26.1948 27.2244 26.0589 27.2244 25.9171C27.2244 25.7754 27.2807 25.6394 27.381 25.5392C27.4812 25.4389 27.6172 25.3826 27.7589 25.3826M27.7589 26.4516C27.9007 26.4516 28.0366 26.3953 28.1369 26.2951C28.2371 26.1948 28.2934 26.0589 28.2934 25.9171C28.2934 25.7754 28.2371 25.6394 28.1369 25.5392C28.0366 25.4389 27.9007 25.3826 27.7589 25.3826M6.37807 26.4516C6.23631 26.4516 6.10035 26.3953 6.00011 26.2951C5.89987 26.1948 5.84355 26.0589 5.84355 25.9171C5.84355 25.7754 5.89987 25.6394 6.00011 25.5392C6.10035 25.4389 6.23631 25.3826 6.37807 25.3826M6.37807 26.4516C6.51984 26.4516 6.65579 26.3953 6.75604 26.2951C6.85628 26.1948 6.91259 26.0589 6.91259 25.9171C6.91259 25.7754 6.85628 25.6394 6.75604 25.5392C6.65579 25.4389 6.51984 25.3826 6.37807 25.3826M2.1019 21.1064C1.96014 21.1064 1.82418 21.0501 1.72394 20.9499C1.6237 20.8496 1.56738 20.7137 1.56738 20.5719C1.56738 20.4301 1.6237 20.2942 1.72394 20.1939C1.82418 20.0937 1.96014 20.0374 2.1019 20.0374M2.1019 21.1064C2.24367 21.1064 2.37963 21.0501 2.47987 20.9499C2.58011 20.8496 2.63643 20.7137 2.63643 20.5719C2.63643 20.4301 2.58011 20.2942 2.47987 20.1939C2.37963 20.0937 2.24367 20.0374 2.1019 20.0374" stroke="#1B3950" stroke-width="1.5"/>
</svg>
