<svg width="34" height="34" viewBox="0 0 34 34" fill="none" xmlns="http://www.w3.org/2000/svg">
<path d="M6.6 22.6016C3.0608 21.1888 1 17.6944 1 14.0816C1 9.3936 4.7072 4.7616 7.3088 2.0896C8.7216 0.6368 10.8768 0.6368 12.2912 2.0896C13.0784 2.8976 13.744 3.8848 14.6 5" stroke="#1B3950" stroke-width="1.5" stroke-linecap="round"/>
<path d="M10.5996 21.6832C10.5996 15.9936 15.318 10.3712 18.63 7.1232C20.4284 5.3616 23.1708 5.3616 24.9692 7.1232C28.2812 10.3712 32.9996 15.9936 32.9996 21.6832C32.9996 27.2624 28.7596 33.0016 21.7996 33.0016C14.8396 33.0016 10.5996 27.2624 10.5996 21.6832Z" stroke="#1B3950" stroke-width="1.5"/>
<path d="M27.3996 22.6016C27.3996 26.1376 24.9996 27.4016 22.5996 27.4016" stroke="#1B3950" stroke-width="1.5" stroke-linecap="round" stroke-linejoin="round"/>
</svg>
