<svg width="32" height="32" viewBox="0 0 32 32" fill="none" xmlns="http://www.w3.org/2000/svg">
<path d="M2.69028 27.0733C4.19561 29.2267 10.7449 30.916 13.8396 26.8867C17.1863 28.4867 22.7049 27.9907 27.1996 25.484C27.8236 25.1373 28.4143 24.6973 28.7769 24.0787C29.5943 22.6853 29.6129 20.752 28.1223 17.9C25.6356 11.6947 21.1649 6.24667 19.3596 4.05601C18.9889 3.71867 16.6249 3.23867 15.1823 2.77601C14.5449 2.58001 13.3596 2.44934 11.9423 4.31867C11.2689 5.20401 8.21428 7.38134 12.0889 8.84401C12.6903 8.99734 13.1316 9.27867 15.8716 8.77867C16.2276 8.71734 17.1183 8.77867 17.7463 9.88001L19.0583 11.756C19.181 11.9298 19.2584 12.1314 19.2836 12.3427C19.5129 14.3413 19.5049 16.8427 20.6196 18.1107C18.8996 16.8653 14.4009 15.388 11.0116 19.5933M2.66895 17.2533C4.19472 15.8934 6.13993 15.0965 8.18129 14.9951C10.2227 14.8937 12.2373 15.4939 13.8903 16.696" stroke="#1B3950" stroke-width="1.5" stroke-linecap="round" stroke-linejoin="round"/>
</svg>
