<svg width="32" height="32" viewBox="0 0 32 32" fill="none" xmlns="http://www.w3.org/2000/svg">
<path fill-rule="evenodd" clip-rule="evenodd" d="M14.9557 5.20398C14.969 5.57864 15.039 5.79931 15.151 5.93198C15.3143 6.12531 15.4777 6.19398 15.671 6.21131C15.897 6.23131 16.1843 6.17998 16.565 6.06131C16.7826 5.99193 16.9984 5.91724 17.2123 5.83731C17.3963 5.77064 17.5917 5.69931 17.7863 5.63531C18.2163 5.49331 18.7083 5.36064 19.2063 5.36064C22.4083 5.36064 24.3077 7.86064 25.5583 10.092C27.0943 12.832 27.0297 16.2526 25.3937 18.9346C24.3177 20.6986 22.9423 22.2266 20.857 23.0373C17.8323 24.214 14.4943 23.7586 11.7437 22.4006C11.1317 22.098 10.4123 22.5633 10.4123 23.1553V27.3333H9.07899V23.1553C9.07899 21.4546 10.9457 20.5193 12.3343 21.2046C14.829 22.4366 17.7723 22.8066 20.3737 21.7946C22.085 21.1293 23.263 19.8666 24.2557 18.24C25.6403 15.9693 25.6957 13.0633 24.3957 10.744C23.1603 8.54064 21.6017 6.69398 19.207 6.69398C18.927 6.69398 18.6003 6.77064 18.2043 6.90131C18.029 6.95931 17.8523 7.02331 17.6657 7.09064L17.603 7.11398C17.397 7.18798 17.1797 7.26598 16.9623 7.33398C16.537 7.46664 16.0463 7.58264 15.5537 7.53931C15.0277 7.49264 14.533 7.26798 14.131 6.79064C13.7277 6.31198 13.6403 5.71998 13.6237 5.25064C13.615 5.00998 13.625 4.77064 13.635 4.56131L13.6397 4.46798C13.6483 4.28998 13.6557 4.14131 13.6557 4.00331L14.989 3.99664C14.989 4.17464 14.9797 4.36598 14.971 4.54064L14.967 4.62598C14.957 4.83264 14.9497 5.02331 14.9557 5.20398ZM9.23899 4.33731V3.99998H10.5723V4.24864C10.571 6.06731 10.5697 7.60064 11.417 9.02864C12.0063 10.022 12.8783 10.718 13.8703 11.51L14.3123 11.864C15.5137 12.836 15.7723 14.1553 15.3617 15.3106C14.9683 16.4213 13.975 17.3406 12.7537 17.6906C12.097 17.878 11.4737 18.0173 10.9097 18.1433L10.523 18.23C9.84833 18.3833 9.27566 18.53 8.76699 18.7406C7.80699 19.1373 7.02299 19.782 6.39433 21.3226C6.13478 21.9599 6.00099 22.6413 6.00033 23.3293V27.3333H4.66699V23.3293C4.66699 22.4693 4.83433 21.6166 5.16033 20.8193C5.91699 18.964 6.95366 18.048 8.25699 17.5086C8.87899 17.2513 9.54833 17.0846 10.2263 16.93L10.6337 16.8386C11.2223 16.7129 11.807 16.5695 12.387 16.4086C13.2183 16.1706 13.8637 15.546 14.1057 14.8646C14.331 14.2286 14.2243 13.508 13.4737 12.9006C13.3368 12.7904 13.1968 12.6786 13.0537 12.5653C12.0757 11.788 10.9937 10.9293 10.2703 9.70931C9.22966 7.95531 9.23433 6.07398 9.23899 4.33731Z" fill="#1B3950"/>
</svg>
