<svg width="32" height="32" viewBox="0 0 32 32" fill="none" xmlns="http://www.w3.org/2000/svg">
<path d="M7.00016 1C7.00016 1 9.00016 3 9.00016 9C9.00016 16 3.00016 17 3.00016 25C2.89639 27.1793 3.60958 29.3188 5.00016 31M25.0002 1C25.0002 1 23.0002 3 23.0002 9C23.0002 16 29.0002 17 29.0002 25C29.1039 27.1793 28.3907 29.3188 27.0002 31M16.0002 31V27M16.0002 27L11.6908 22.504C11.4305 22.2445 11.2295 21.9318 11.1015 21.5873C10.9735 21.2428 10.9216 20.8746 10.9493 20.5082C10.9771 20.1417 11.0838 19.7855 11.2622 19.4642C11.4406 19.1429 11.6864 18.864 11.9828 18.6467C12.4733 18.2845 13.0775 18.1104 13.6855 18.1559C14.2935 18.2014 14.865 18.4635 15.2962 18.8947L16.0002 19.6L16.7042 18.896C16.9898 18.6097 17.3395 18.3956 17.7244 18.2713C18.1092 18.147 18.5181 18.1162 18.9172 18.1813C19.3164 18.2465 19.6942 18.4058 20.0196 18.646C20.3449 18.8862 20.6084 19.2004 20.7882 19.5627C21.0277 20.0412 21.1104 20.5831 21.0244 21.1114C20.9385 21.6396 20.6884 22.1273 20.3095 22.5053L16.0002 27Z" stroke="#1B3950" stroke-width="1.5" stroke-linecap="round" stroke-linejoin="round"/>
</svg>
