<svg width="48" height="48" viewBox="0 0 48 48" fill="none" xmlns="http://www.w3.org/2000/svg">
<mask id="path-1-inside-1_217_111" fill="white">
<path d="M7.89375 22.0792C7.69931 21.8764 7.60208 21.6354 7.60208 21.3563C7.60208 21.0771 7.69931 20.8229 7.89375 20.5937L13.0437 15.4417L10.1646 12.6L8.81875 13.9458C8.58958 14.1764 8.33542 14.2917 8.05625 14.2917C7.77708 14.2917 7.53611 14.1764 7.33333 13.9458C7.11111 13.7514 7 13.5125 7 13.2292C7 12.9458 7.11111 12.6937 7.33333 12.4729L11.5 8.34583C11.7028 8.11528 11.9437 8 12.2229 8C12.5021 8 12.7563 8.11528 12.9854 8.34583C13.1799 8.54028 13.2771 8.77917 13.2771 9.0625C13.2771 9.34583 13.1799 9.58472 12.9854 9.77917L11.6 11.1667L14.4792 14.0062L19.6312 8.85417C19.8618 8.625 20.1167 8.51042 20.3958 8.51042C20.675 8.51042 20.916 8.625 21.1187 8.85417C21.3479 9.05694 21.4625 9.29792 21.4625 9.57708C21.4625 9.85625 21.3479 10.1104 21.1187 10.3396L19.9521 11.4937L34.1146 25.6563C34.7799 26.3229 35.1125 27.1243 35.1125 28.0604C35.1125 28.9965 34.7799 29.7833 34.1146 30.4208L32.5375 32.0125L40.9375 40.4021H37.9646L31.05 33.4854L29.4708 35.0771C28.8319 35.716 28.0451 36.0354 27.1104 36.0354C26.1757 36.0354 25.375 35.716 24.7083 35.0771L10.5438 20.9146L9.37708 22.0812C9.14792 22.3021 8.9007 22.4125 8.63542 22.4125C8.36875 22.4125 8.12083 22.3014 7.89167 22.0792M11.9771 19.4792L26.1396 33.6417C26.4076 33.8819 26.7153 34.0021 27.0625 34.0021C27.4097 34.0021 27.7167 33.8819 27.9833 33.6417L32.6271 28.9479C32.8938 28.7062 33.0271 28.4056 33.0271 28.0458C33.0271 27.6847 32.8938 27.384 32.6271 27.1437L29.6625 24.1271L26.4646 27.325C26.2354 27.5472 25.9875 27.6597 25.7208 27.6625C25.4542 27.6653 25.2243 27.5694 25.0313 27.375C24.8007 27.1722 24.6854 26.9312 24.6854 26.6521C24.6854 26.3729 24.8007 26.1187 25.0313 25.8896L28.2271 22.6917L23.8604 18.3667L20.6646 21.5625C20.4604 21.7569 20.2187 21.8542 19.9396 21.8542C19.6604 21.8542 19.4062 21.7569 19.1771 21.5625C18.9826 21.3333 18.8854 21.0792 18.8854 20.8C18.8854 20.5208 18.9826 20.2799 19.1771 20.0771L22.375 16.8792L18.4771 12.9812L11.9771 19.4792ZM11.9771 19.4792L12.2375 19.2188L12.9 18.5583L17.5979 13.8625L18.2187 13.2417L18.4771 12.9812L11.9771 19.4792Z"/>
</mask>
<path d="M18.4771 12.9812L17.8585 12.3624L11.3585 18.8603L11.9771 19.4792L12.5957 20.098L19.0957 13.6001L18.4771 12.9812ZM7.89375 20.5937L6.65606 19.3566L6.60557 19.4071L6.55936 19.4615L7.89375 20.5937ZM13.0437 15.4417L14.2814 16.6789L15.5265 15.4333L14.273 14.1961L13.0437 15.4417ZM10.1646 12.6L11.3939 11.3545L10.1565 10.1332L8.92715 11.3626L10.1646 12.6ZM8.81875 13.9458L7.58131 12.7084L7.57758 12.7121L8.81875 13.9458ZM7.33333 13.9458L8.6474 12.7901L8.57183 12.7042L8.48572 12.6288L7.33333 13.9458ZM7.33333 12.4729L6.10182 11.2296L6.09978 11.2316L7.33333 12.4729ZM11.5 8.34583L12.7315 9.58916L12.7743 9.54679L12.8141 9.50158L11.5 8.34583ZM12.9854 8.34583L11.7442 9.57953L11.748 9.58327L12.9854 8.34583ZM12.9854 9.77917L11.748 8.54173L11.7471 8.54266L12.9854 9.77917ZM11.6 11.1667L10.3616 9.93016L9.11747 11.1762L10.3712 12.4126L11.6 11.1667ZM14.4792 14.0062L13.2503 15.2522L14.4877 16.4726L15.7166 15.2437L14.4792 14.0062ZM19.6312 8.85417L18.3976 7.61299L18.3938 7.61673L19.6312 8.85417ZM21.1187 8.85417L19.8082 10.0138L19.879 10.0939L19.9591 10.1648L21.1187 8.85417ZM21.1187 10.3396L22.3495 11.5837L22.3562 11.577L21.1187 10.3396ZM19.9521 11.4937L18.7213 10.2497L17.4705 11.4871L18.7146 12.7312L19.9521 11.4937ZM34.1146 25.6563L35.3533 24.4201L35.352 24.4188L34.1146 25.6563ZM34.1146 30.4208L32.9038 29.1573L32.8874 29.173L32.8715 29.1891L34.1146 30.4208ZM32.5375 32.0125L31.2944 30.7808L30.0675 32.0189L31.3008 33.2507L32.5375 32.0125ZM40.9375 40.4021V42.1521H45.1661L42.1742 39.1639L40.9375 40.4021ZM37.9646 40.4021L36.727 41.6393L37.2396 42.1521H37.9646V40.4021ZM31.05 33.4854L32.2876 32.2482L31.0453 31.0055L29.8077 32.2529L31.05 33.4854ZM29.4708 35.0771L30.7083 36.3145L30.7131 36.3096L29.4708 35.0771ZM24.7083 35.0771L23.471 36.3146L23.4841 36.3277L23.4975 36.3406L24.7083 35.0771ZM10.5438 20.9146L11.7811 19.6771L10.5437 18.4398L9.30631 19.6771L10.5438 20.9146ZM9.37708 22.0812L10.5914 23.3414L10.6031 23.3301L10.6145 23.3187L9.37708 22.0812ZM11.9771 19.4792L10.7396 18.2417L9.50221 19.4792L10.7396 20.7166L11.9771 19.4792ZM26.1396 33.6417L24.9021 34.8791L24.9359 34.9129L24.9715 34.9448L26.1396 33.6417ZM27.9833 33.6417L29.1548 34.9418L29.1921 34.9081L29.2274 34.8725L27.9833 33.6417ZM32.6271 28.9479L31.4519 27.6512L31.4166 27.6832L31.383 27.7171L32.6271 28.9479ZM32.6271 27.1437L31.3789 28.3704L31.4162 28.4083L31.4556 28.4438L32.6271 27.1437ZM29.6625 24.1271L30.9107 22.9005L29.6733 21.6414L28.4251 22.8896L29.6625 24.1271ZM26.4646 27.325L27.6828 28.5813L27.6925 28.572L27.702 28.5624L26.4646 27.325ZM25.0313 27.375L26.2731 26.142L26.2314 26.1L26.187 26.0609L25.0313 27.375ZM25.0313 25.8896L26.265 27.1308L26.2691 27.1266L25.0313 25.8896ZM28.2271 22.6917L29.4649 23.9287L30.7075 22.6853L29.4586 21.4483L28.2271 22.6917ZM23.8604 18.3667L25.0919 17.1233L23.8545 15.8977L22.623 17.1292L23.8604 18.3667ZM20.6646 21.5625L21.8715 22.8297L21.8869 22.815L21.902 22.7999L20.6646 21.5625ZM19.1771 21.5625L17.8427 22.6947L17.9355 22.8041L18.0449 22.8969L19.1771 21.5625ZM19.1771 20.0771L17.9396 18.8396L17.9267 18.8526L17.914 18.8659L19.1771 20.0771ZM22.375 16.8792L23.6124 18.1166L24.8499 16.8792L23.6124 15.6417L22.375 16.8792ZM18.4771 12.9812L19.7145 11.7438L18.4721 10.5014L17.2347 11.7488L18.4771 12.9812ZM12.2375 19.2188L11.002 17.9794L11.0001 17.9813L12.2375 19.2188ZM12.9 18.5583L14.1355 19.7977L14.1372 19.796L12.9 18.5583ZM17.5979 13.8625L18.8351 15.1002L18.8354 15.0999L17.5979 13.8625ZM18.2187 13.2417L19.4562 14.4791L19.4611 14.4741L18.2187 13.2417ZM7.89375 22.0792L9.15687 20.868C9.2013 20.9143 9.25655 20.9891 9.29789 21.0916C9.33931 21.1942 9.35208 21.2883 9.35208 21.3563H7.60208H5.85208C5.85208 22.09 6.12597 22.7641 6.63063 23.2904L7.89375 22.0792ZM7.60208 21.3563H9.35208C9.35208 21.4247 9.33923 21.5038 9.3095 21.5815C9.28046 21.6574 9.24559 21.7054 9.22814 21.726L7.89375 20.5937L6.55936 19.4615C6.11876 19.9808 5.85208 20.6293 5.85208 21.3563H7.60208ZM7.89375 20.5937L9.13144 21.8309L14.2814 16.6789L13.0437 15.4417L11.8061 14.2045L6.65606 19.3566L7.89375 20.5937ZM13.0437 15.4417L14.273 14.1961L11.3939 11.3545L10.1646 12.6L8.93528 13.8455L11.8145 16.6872L13.0437 15.4417ZM10.1646 12.6L8.92715 11.3626L7.58131 12.7084L8.81875 13.9458L10.0562 15.1833L11.402 13.8374L10.1646 12.6ZM8.81875 13.9458L7.57758 12.7121C7.58831 12.7014 7.63833 12.6546 7.73341 12.6115C7.83346 12.5661 7.94658 12.5417 8.05625 12.5417V14.2917V16.0417C8.87817 16.0417 9.56068 15.6818 10.0599 15.1795L8.81875 13.9458ZM8.05625 14.2917V12.5417C8.16594 12.5417 8.29538 12.5663 8.42135 12.6265C8.54323 12.6849 8.61605 12.7544 8.6474 12.7901L7.33333 13.9458L6.01927 15.1016C6.51707 15.6676 7.22026 16.0417 8.05625 16.0417V14.2917ZM7.33333 13.9458L8.48572 12.6288C8.53595 12.6728 8.61103 12.7558 8.67009 12.8828C8.73002 13.0116 8.75 13.1354 8.75 13.2292H7H5.25C5.25 14.0409 5.59721 14.7521 6.18095 15.2628L7.33333 13.9458ZM7 13.2292H8.75C8.75 13.3234 8.72998 13.4307 8.68468 13.5334C8.64089 13.6328 8.58963 13.6916 8.56689 13.7142L7.33333 12.4729L6.09978 11.2316C5.58538 11.7428 5.25 12.4283 5.25 13.2292H7ZM7.33333 12.4729L8.56485 13.7162L12.7315 9.58916L11.5 8.34583L10.2685 7.1025L6.10182 11.2296L7.33333 12.4729ZM11.5 8.34583L12.8141 9.50158C12.7827 9.53722 12.7099 9.60681 12.588 9.66512C12.4621 9.72538 12.3326 9.75 12.2229 9.75V8V6.25C11.3869 6.25 10.6837 6.62411 10.1859 7.19009L11.5 8.34583ZM12.2229 8V9.75C12.1132 9.75 12.0001 9.72557 11.9001 9.6802C11.805 9.63707 11.755 9.59032 11.7442 9.57953L12.9854 8.34583L14.2266 7.11214C13.7273 6.60988 13.0448 6.25 12.2229 6.25V8ZM12.9854 8.34583L11.748 9.58327C11.6912 9.52648 11.6284 9.44135 11.5833 9.3305C11.5386 9.2207 11.5271 9.12464 11.5271 9.0625H13.2771H15.0271C15.0271 8.3308 14.7565 7.64201 14.2229 7.1084L12.9854 8.34583ZM13.2771 9.0625H11.5271C11.5271 9.00036 11.5386 8.9043 11.5833 8.7945C11.6284 8.68365 11.6912 8.59852 11.748 8.54173L12.9854 9.77917L14.2229 11.0166C14.7565 10.483 15.0271 9.7942 15.0271 9.0625H13.2771ZM12.9854 9.77917L11.7471 8.54266L10.3616 9.93016L11.6 11.1667L12.8384 12.4032L14.2238 11.0157L12.9854 9.77917ZM11.6 11.1667L10.3712 12.4126L13.2503 15.2522L14.4792 14.0062L15.708 12.7603L12.8288 9.92069L11.6 11.1667ZM14.4792 14.0062L15.7166 15.2437L20.8687 10.0916L19.6312 8.85417L18.3938 7.61673L13.2417 12.7688L14.4792 14.0062ZM19.6312 8.85417L20.8649 10.0953C20.8549 10.1053 20.806 10.1506 20.7129 10.1925C20.6149 10.2365 20.5039 10.2604 20.3958 10.2604V8.51042V6.76042C19.5783 6.76042 18.8978 7.11577 18.3976 7.613L19.6312 8.85417ZM20.3958 8.51042V10.2604C20.2878 10.2604 20.1596 10.2363 20.0344 10.1768C19.9132 10.1191 19.8401 10.05 19.8082 10.0138L21.1187 8.85417L22.4293 7.69449C21.9302 7.13042 21.2279 6.76042 20.3958 6.76042V8.51042ZM21.1187 8.85417L19.9591 10.1648C19.9229 10.1328 19.8538 10.0598 19.7961 9.93848C19.7366 9.81328 19.7125 9.68515 19.7125 9.57708H21.4625H23.2125C23.2125 8.74503 22.8425 8.04269 22.2784 7.54357L21.1187 8.85417ZM21.4625 9.57708H19.7125C19.7125 9.46901 19.7364 9.35716 19.7812 9.25786C19.8238 9.16338 19.8701 9.11332 19.8813 9.10215L21.1187 10.3396L22.3562 11.577C22.8564 11.0768 23.2125 10.3953 23.2125 9.57708H21.4625ZM21.1187 10.3396L19.888 9.0955L18.7213 10.2497L19.9521 11.4937L21.1828 12.7378L22.3495 11.5837L21.1187 10.3396ZM19.9521 11.4937L18.7146 12.7312L32.8771 26.8937L34.1146 25.6563L35.352 24.4188L21.1895 10.2563L19.9521 11.4937ZM34.1146 25.6563L32.8759 26.8924C33.216 27.2332 33.3625 27.591 33.3625 28.0604H35.1125H36.8625C36.8625 26.6576 36.3437 25.4126 35.3533 24.4201L34.1146 25.6563ZM35.1125 28.0604H33.3625C33.3625 28.5281 33.2185 28.8558 32.9038 29.1573L34.1146 30.4208L35.3254 31.6844C36.3413 30.7109 36.8625 29.465 36.8625 28.0604H35.1125ZM34.1146 30.4208L32.8715 29.1891L31.2944 30.7808L32.5375 32.0125L33.7806 33.2442L35.3577 31.6526L34.1146 30.4208ZM32.5375 32.0125L31.3008 33.2507L39.7008 41.6403L40.9375 40.4021L42.1742 39.1639L33.7742 30.7743L32.5375 32.0125ZM40.9375 40.4021V38.6521H37.9646V40.4021V42.1521H40.9375V40.4021ZM37.9646 40.4021L39.2022 39.1648L32.2876 32.2482L31.05 33.4854L29.8124 34.7227L36.727 41.6393L37.9646 40.4021ZM31.05 33.4854L29.8077 32.2529L28.2285 33.8445L29.4708 35.0771L30.7131 36.3096L32.2923 34.718L31.05 33.4854ZM29.4708 35.0771L28.2334 33.8396C27.9351 34.1379 27.5989 34.2854 27.1104 34.2854V36.0354V37.7854C28.4914 37.7854 29.7287 37.294 30.7083 36.3145L29.4708 35.0771ZM27.1104 36.0354V34.2854C26.6207 34.2854 26.2556 34.136 25.9192 33.8136L24.7083 35.0771L23.4975 36.3406C24.4944 37.2959 25.7306 37.7854 27.1104 37.7854V36.0354ZM24.7083 35.0771L25.9457 33.8396L11.7811 19.6771L10.5438 20.9146L9.3064 22.1521L23.471 36.3146L24.7083 35.0771ZM10.5438 20.9146L9.30631 19.6771L8.13965 20.8438L9.37708 22.0812L10.6145 23.3187L11.7812 22.152L10.5438 20.9146ZM9.37708 22.0812L8.16277 20.8211C8.16918 20.8149 8.21523 20.7724 8.30613 20.7318C8.4023 20.6889 8.51695 20.6625 8.63542 20.6625V22.4125V24.1625C9.44151 24.1625 10.1054 23.8097 10.5914 23.3414L9.37708 22.0812ZM8.63542 22.4125V20.6625C8.7535 20.6625 8.86839 20.6888 8.9652 20.7322C9.05672 20.7732 9.10319 20.8163 9.10992 20.8228L7.89167 22.0792L6.67341 23.3355C7.16049 23.8078 7.8266 24.1625 8.63542 24.1625V22.4125ZM11.9771 19.4792L10.7396 20.7166L24.9021 34.8791L26.1396 33.6417L27.377 32.4042L13.2145 18.2417L11.9771 19.4792ZM26.1396 33.6417L24.9715 34.9448C25.5476 35.4612 26.2671 35.7521 27.0625 35.7521V34.0021V32.2521C27.0954 32.2521 27.1486 32.2587 27.2079 32.2819C27.2663 32.3047 27.2996 32.3313 27.3077 32.3386L26.1396 33.6417ZM27.0625 34.0021V35.7521C27.8582 35.7521 28.5786 35.4609 29.1548 34.9418L27.9833 33.6417L26.8119 32.3416C26.8212 32.3332 26.8557 32.3057 26.9153 32.2824C26.9758 32.2587 27.0297 32.2521 27.0625 32.2521V34.0021ZM27.9833 33.6417L29.2274 34.8725L33.8711 30.1787L32.6271 28.9479L31.383 27.7171L26.7393 32.4109L27.9833 33.6417ZM32.6271 28.9479L33.8022 30.2446C34.4348 29.6714 34.7771 28.8998 34.7771 28.0458H33.0271H31.2771C31.2771 28.0044 31.286 27.925 31.3273 27.8318C31.3686 27.7386 31.4215 27.6788 31.4519 27.6512L32.6271 28.9479ZM33.0271 28.0458H34.7771C34.7771 27.1924 34.436 26.4181 33.7985 25.8437L32.6271 27.1437L31.4556 28.4438C31.4231 28.4145 31.3691 28.3532 31.3273 28.2588C31.2856 28.1648 31.2771 28.0855 31.2771 28.0458H33.0271ZM32.6271 27.1437L33.8752 25.9171L30.9107 22.9005L29.6625 24.1271L28.4143 25.3537L31.3789 28.3704L32.6271 27.1437ZM29.6625 24.1271L28.4251 22.8896L25.2271 26.0876L26.4646 27.325L27.702 28.5624L30.8999 25.3645L29.6625 24.1271ZM26.4646 27.325L25.2463 26.0687C25.2518 26.0634 25.2958 26.0223 25.3836 25.9824C25.4765 25.9403 25.5875 25.9138 25.7026 25.9126L25.7208 27.6625L25.7391 29.4124C26.54 29.4041 27.1991 29.0504 27.6828 28.5813L26.4646 27.325ZM25.7208 27.6625L25.7026 25.9126C25.7895 25.9117 25.9026 25.9277 26.0219 25.9775C26.1402 26.0268 26.2235 26.0921 26.2731 26.142L25.0313 27.375L23.7894 28.608C24.3052 29.1275 24.9854 29.4203 25.7391 29.4124L25.7208 27.6625ZM25.0313 27.375L26.187 26.0609C26.2226 26.0923 26.2922 26.1651 26.3505 26.287C26.4108 26.4129 26.4354 26.5424 26.4354 26.6521H24.6854H22.9354C22.9354 27.4881 23.3095 28.1913 23.8755 28.6891L25.0313 27.375ZM24.6854 26.6521H26.4354C26.4354 26.7618 26.411 26.8749 26.3656 26.9749C26.3225 27.07 26.2757 27.12 26.2649 27.1308L25.0313 25.8896L23.7976 24.6484C23.2953 25.1476 22.9354 25.8302 22.9354 26.6521H24.6854ZM25.0313 25.8896L26.2691 27.1266L29.4649 23.9287L28.2271 22.6917L26.9892 21.4546L23.7934 24.6525L25.0313 25.8896ZM28.2271 22.6917L29.4586 21.4483L25.0919 17.1233L23.8604 18.3667L22.6289 19.61L26.9956 23.935L28.2271 22.6917ZM23.8604 18.3667L22.623 17.1292L19.4271 20.3251L20.6646 21.5625L21.902 22.7999L25.0979 19.6041L23.8604 18.3667ZM20.6646 21.5625L19.4577 20.2953C19.5027 20.2524 19.5761 20.1983 19.6771 20.1577C19.7784 20.1169 19.8716 20.1042 19.9396 20.1042V21.8542V23.6042C20.6731 23.6042 21.3455 23.3306 21.8715 22.8297L20.6646 21.5625ZM19.9396 21.8542V20.1042C20.0081 20.1042 20.0871 20.117 20.1648 20.1467C20.2407 20.1758 20.2887 20.2107 20.3093 20.2281L19.1771 21.5625L18.0449 22.8969C18.5641 23.3375 19.2127 23.6042 19.9396 23.6042V21.8542ZM19.1771 21.5625L20.5115 20.4303C20.5289 20.4509 20.5638 20.4989 20.5928 20.5748C20.6226 20.6525 20.6354 20.7315 20.6354 20.8H18.8854H17.1354C17.1354 21.5269 17.4021 22.1754 17.8427 22.6947L19.1771 21.5625ZM18.8854 20.8H20.6354C20.6354 20.868 20.6226 20.962 20.5812 21.0647C20.5399 21.1671 20.4846 21.242 20.4402 21.2883L19.1771 20.0771L17.914 18.8659C17.4093 19.3922 17.1354 20.0662 17.1354 20.8H18.8854ZM19.1771 20.0771L20.4145 21.3145L23.6124 18.1166L22.375 16.8792L21.1376 15.6417L17.9396 18.8396L19.1771 20.0771ZM22.375 16.8792L23.6124 15.6417L19.7145 11.7438L18.4771 12.9812L17.2396 14.2187L21.1376 18.1166L22.375 16.8792ZM11.9771 19.4792L13.2145 20.7166L13.4749 20.4562L12.2375 19.2188L11.0001 17.9813L10.7396 18.2417L11.9771 19.4792ZM12.2375 19.2188L13.473 20.4581L14.1355 19.7977L12.9 18.5583L11.6645 17.3189L11.002 17.9794L12.2375 19.2188ZM12.9 18.5583L14.1372 19.796L18.8351 15.1002L17.5979 13.8625L16.3608 12.6248L11.6628 17.3206L12.9 18.5583ZM17.5979 13.8625L18.8354 15.0999L19.4562 14.4791L18.2187 13.2417L16.9813 12.0042L16.3605 12.6251L17.5979 13.8625ZM18.2187 13.2417L19.4611 14.4741L19.7195 14.2137L18.4771 12.9812L17.2347 11.7488L16.9764 12.0092L18.2187 13.2417Z" fill="#1B3950" mask="url(#path-1-inside-1_217_111)"/>
</svg>
