<svg width="32" height="32" viewBox="0 0 32 32" fill="none" xmlns="http://www.w3.org/2000/svg">
<path d="M23.9993 9.99998C24.8834 9.99998 25.7312 9.64879 26.3564 9.02367C26.9815 8.39855 27.3327 7.5507 27.3327 6.66665C27.3327 5.78259 26.9815 4.93474 26.3564 4.30962C25.7312 3.6845 24.8834 3.33331 23.9993 3.33331C23.1153 3.33331 22.2674 3.6845 21.6423 4.30962C21.0172 4.93474 20.666 5.78259 20.666 6.66665C20.666 7.5507 21.0172 8.39855 21.6423 9.02367C22.2674 9.64879 23.1153 9.99998 23.9993 9.99998Z" stroke="#1B3950" stroke-width="1.5"/>
<path d="M7.99961 11.18L13.3349 9.33197L20.6663 12.8313L13.3349 18.296L20.6663 23.1226L16.0049 29.332M23.5463 14.4286L25.3343 15.4013L29.3329 11.644M11.2323 21.03L9.25228 23.638L2.66895 27.3313" stroke="#1B3950" stroke-width="1.5" stroke-linecap="round" stroke-linejoin="round"/>
</svg>
