<svg width="32" height="32" viewBox="0 0 32 32" fill="none" xmlns="http://www.w3.org/2000/svg">
<path d="M9.33291 18.6667C8.75089 18.6676 8.17607 18.7954 7.64857 19.0414C7.12107 19.2873 6.65359 19.6454 6.27877 20.0907C5.90395 20.5359 5.63081 21.0576 5.47842 21.6193C5.32602 22.1811 5.29805 22.7693 5.39644 23.3429C5.49484 23.9166 5.71723 24.4618 6.0481 24.9406C6.37898 25.4195 6.81036 25.8203 7.31214 26.1152C7.81391 26.4101 8.374 26.592 8.95332 26.6481C9.53263 26.7042 10.1172 26.6332 10.6662 26.44" stroke="#1B3950" stroke-width="1.5" stroke-linecap="round" stroke-linejoin="round"/>
<path d="M5.68489 20.8067C4.88698 20.4226 4.19727 19.8458 3.67803 19.1284C3.15878 18.411 2.82634 17.5757 2.7107 16.6977C2.59507 15.8197 2.69988 14.9267 3.01568 14.0994C3.33147 13.272 3.84832 12.5363 4.51956 11.9587M4.55956 11.8507C4.12228 11.1964 3.93063 10.4084 4.01852 9.62633C4.10641 8.84426 4.46819 8.11851 5.03979 7.57755C5.6114 7.0366 6.35597 6.71534 7.1417 6.67065C7.92743 6.62596 8.70363 6.86071 9.33289 7.33336M9.65023 7.42003C9.43752 6.96809 9.32911 6.47412 9.33299 5.97464C9.33688 5.47517 9.45296 4.98295 9.67267 4.53437C9.89238 4.08579 10.2101 3.69233 10.6023 3.38305C10.9945 3.07378 11.4513 2.85661 11.9387 2.7476C12.4262 2.63858 12.9319 2.64051 13.4185 2.75323C13.9051 2.86596 14.3601 3.0866 14.75 3.39885C15.1399 3.7111 15.4546 4.10697 15.6709 4.55721C15.8871 5.00745 15.9995 5.50053 15.9996 6.00003V26.6667C15.9996 27.3739 15.7186 28.0522 15.2185 28.5523C14.7184 29.0524 14.0401 29.3334 13.3329 29.3334C12.6256 29.3334 11.9474 29.0524 11.4473 28.5523C10.9472 28.0522 10.6662 27.3739 10.6662 26.6667M15.9996 9.33336C15.9996 10.3942 16.421 11.4116 17.1711 12.1618C17.9213 12.9119 18.9387 13.3334 19.9996 13.3334M22.6662 18.6667C23.2482 18.6676 23.8231 18.7954 24.3506 19.0414C24.8781 19.2873 25.3455 19.6454 25.7204 20.0907C26.0952 20.5359 26.3683 21.0576 26.5207 21.6194C26.6731 22.1811 26.7011 22.7693 26.6027 23.3429C26.5043 23.9166 26.2819 24.4618 25.951 24.9406C25.6202 25.4195 25.1888 25.8203 24.687 26.1152C24.1852 26.4101 23.6251 26.592 23.0458 26.6481C22.4665 26.7042 21.8819 26.6332 21.3329 26.44" stroke="#1B3950" stroke-width="1.5" stroke-linecap="round" stroke-linejoin="round"/>
<path d="M26.3147 20.8067C27.1126 20.4226 27.8023 19.8458 28.3215 19.1284C28.8408 18.411 29.1732 17.5757 29.2889 16.6977C29.4045 15.8197 29.2997 14.9267 28.9839 14.0994C28.6681 13.272 28.1512 12.5363 27.48 11.9587M27.44 11.8507C27.8773 11.1964 28.0689 10.4084 27.981 9.62633C27.8931 8.84426 27.5314 8.11851 26.9598 7.57755C26.3882 7.0366 25.6436 6.71534 24.8579 6.67065C24.0721 6.62596 23.2959 6.86071 22.6667 7.33336M16 6.00003C16.0001 5.50053 16.1124 5.00745 16.3287 4.55721C16.545 4.10697 16.8597 3.7111 17.2496 3.39885C17.6394 3.0866 18.0945 2.86596 18.5811 2.75323C19.0677 2.64051 19.5734 2.63858 20.0608 2.7476C20.5483 2.85661 21.005 3.07378 21.3972 3.38305C21.7895 3.69233 22.1072 4.08579 22.3269 4.53437C22.5466 4.98295 22.6627 5.47517 22.6666 5.97464C22.6704 6.47412 22.562 6.96809 22.3493 7.42003M21.3333 26.6667C21.3333 27.3739 21.0524 28.0522 20.5523 28.5523C20.0522 29.0524 19.3739 29.3334 18.6667 29.3334C17.9594 29.3334 17.2811 29.0524 16.781 28.5523C16.281 28.0522 16 27.3739 16 26.6667" stroke="#1B3950" stroke-width="1.5" stroke-linecap="round" stroke-linejoin="round"/>
</svg>
