<svg width="34" height="20" viewBox="0 0 34 20" fill="none" xmlns="http://www.w3.org/2000/svg">
<path d="M1 11.6667C7.4 -2.55556 26.6 -2.55556 33 11.6667" stroke="#1B3950" stroke-width="1.5" stroke-linecap="round" stroke-linejoin="round"/>
<path d="M17.0003 18.7778C16.2999 18.7778 15.6064 18.6398 14.9593 18.3718C14.3123 18.1038 13.7243 17.7109 13.2291 17.2157C12.7338 16.7204 12.341 16.1325 12.073 15.4854C11.8049 14.8384 11.667 14.1448 11.667 13.4444C11.667 12.7441 11.8049 12.0505 12.073 11.4035C12.341 10.7564 12.7338 10.1685 13.2291 9.67321C13.7243 9.17797 14.3123 8.78511 14.9593 8.51709C15.6064 8.24906 16.2999 8.11111 17.0003 8.11111C18.4148 8.11111 19.7714 8.67302 20.7716 9.67321C21.7718 10.6734 22.3337 12.03 22.3337 13.4444C22.3337 14.8589 21.7718 16.2155 20.7716 17.2157C19.7714 18.2159 18.4148 18.7778 17.0003 18.7778Z" fill="#1B3950" stroke="#1B3950" stroke-width="1.5" stroke-linecap="round" stroke-linejoin="round"/>
</svg>
