<svg width="32" height="56" viewBox="0 0 32 56" fill="none" xmlns="http://www.w3.org/2000/svg">
<path d="M14.9538 0H13.2175C12.9018 0.000158798 12.5955 0.108343 12.349 0.306783C12.1025 0.505224 11.9304 0.782123 11.8609 1.092L7.19586 21.8778C7.03674 22.5867 6.95648 23.3112 6.95656 24.038V27.2888C6.95648 28.38 7.13752 29.4636 7.49221 30.4948L12.8543 46.081L5.30646 49H1.39131C1.02231 49 0.668427 49.1475 0.407506 49.41C0.146584 49.6726 0 50.0287 0 50.4V51.8C0 52.9139 0.439752 53.9822 1.22252 54.7698C2.00528 55.5575 3.06694 56 4.17393 56H8.79309C9.04317 56.0001 9.29275 55.9776 9.53883 55.9328L15.1194 54.9108C16.0079 54.7486 16.9247 54.8808 17.7323 55.2874L17.8171 55.3294C18.9475 55.8993 20.2392 56.0579 21.4726 55.7781C22.706 55.4984 23.8052 54.7976 24.5833 53.7947C25.3614 52.7919 25.7705 51.5489 25.741 50.277C25.7115 49.0051 25.2454 47.7827 24.4217 46.8174L22.2846 44.31L22.798 32.949C22.9131 30.3956 22.2536 27.8673 20.9072 25.6998L19.8234 23.954C21.6595 21.8458 23.3776 19.6364 24.9699 17.3362C27.9514 13.0102 31.2461 7.1806 31.9876 1.5862C32.014 1.38841 31.9981 1.18723 31.9409 0.996148C31.8836 0.805068 31.7865 0.628503 31.6559 0.478291C31.5254 0.328079 31.3644 0.207692 31.1838 0.125202C31.0032 0.0427111 30.8072 2.31567e-05 30.6088 0H29.6808L28.9448 2.8C27.9473 7.2534 25.2996 11.9434 22.6839 15.7388C21.0936 18.0356 19.3729 20.2382 17.5305 22.3356L17.0992 22.8116L17.0797 22.8354L17.0742 22.8396C16.6415 23.303 16.5733 24.0016 16.9072 24.542L18.549 27.1824C19.5959 28.8686 20.1083 30.8354 20.0182 32.8216L19.4784 44.7356C19.4621 45.0918 19.5815 45.4408 19.8123 45.7114L22.3069 48.6402C22.7123 49.1146 22.942 49.7156 22.9568 50.3411C22.9717 50.9666 22.7707 51.578 22.3882 52.0713C22.0057 52.5646 21.4652 52.9094 20.8586 53.047C20.2521 53.1846 19.6168 53.1066 19.061 52.8262L18.9761 52.7828C17.63 52.1057 16.1019 51.8861 14.6213 52.157L9.03935 53.1776C8.95773 53.1916 8.87518 53.1991 8.7917 53.2H4.17393C3.80494 53.2 3.45105 53.0525 3.19013 52.7899C2.92921 52.5274 2.78262 52.1713 2.78262 51.8H5.56525C5.73605 51.7998 5.90536 51.768 6.06472 51.7062L15.1082 48.2062C15.4449 48.0759 15.718 47.8191 15.8701 47.49C16.0222 47.1609 16.0414 46.7852 15.9236 46.4422L10.1218 29.5764C9.86855 28.8401 9.73923 28.0665 9.73918 27.2874V24.0366C9.7393 23.518 9.7967 23.001 9.91031 22.4952L14.9538 0Z" fill="#1B3950"/>
</svg>
