<svg width="32" height="49" viewBox="0 0 32 49" fill="none" xmlns="http://www.w3.org/2000/svg">
<path d="M25.4935 1.83086C25.565 1.67542 25.6051 1.50716 25.6113 1.33594C25.6175 1.16472 25.5898 0.993976 25.5297 0.833684C25.4696 0.673392 25.3784 0.526772 25.2613 0.4024C25.1443 0.278028 25.0038 0.178399 24.8481 0.109339C24.6924 0.0402787 24.5246 0.00317441 24.3544 0.000194916C24.1843 -0.00278457 24.0153 0.0284209 23.8573 0.0919864C23.6993 0.155552 23.5554 0.250201 23.4342 0.3704C23.3129 0.4906 23.2167 0.633936 23.1511 0.792027L23.146 0.802338L23.1293 0.841005C23.0185 1.09226 22.905 1.34232 22.7889 1.59113C21.3202 4.76097 19.7144 7.86456 17.9761 10.893C14.8017 16.4081 10.6277 22.5148 6.41397 25.5733C0.853697 29.592 -0.81797 34.5336 0.35322 38.6709C1.50009 42.7244 5.30038 45.6141 9.78674 45.6141H13.9198C14.8116 45.6141 15.6669 45.9708 16.2975 46.6058C16.9281 47.2408 17.2824 48.102 17.2824 49H19.8423C19.8423 47.4183 19.2184 45.9015 18.1077 44.7831C16.997 43.6647 15.4906 43.0364 13.9198 43.0364H13.1826C13.4693 42.6033 13.9275 42.1792 14.6238 41.8532C15.8961 41.2551 18.0542 40.9509 21.4718 41.75C21.6358 41.7893 21.8059 41.7955 21.9723 41.7683C22.1387 41.7411 22.2982 41.6811 22.4415 41.5917C22.5848 41.5024 22.7092 41.3853 22.8075 41.2474C22.9058 41.1095 22.976 40.9533 23.0142 40.788C23.0524 40.6226 23.0578 40.4513 23.03 40.2839C23.0023 40.1164 22.9419 39.9561 22.8525 39.8122C22.763 39.6683 22.6462 39.5436 22.5088 39.4453C22.3714 39.347 22.216 39.277 22.0516 39.2393C18.3025 38.3629 15.5109 38.591 13.5409 39.5164C11.804 40.3323 10.7826 41.6611 10.3909 43.0351H9.78674C6.39861 43.0351 3.63639 40.8659 2.81592 37.9633C2.01721 35.1445 2.9708 31.2341 7.90772 27.6665L7.91028 27.6652C12.6078 24.2561 17.0123 17.7086 20.1918 12.1857C21.9676 9.0886 23.6092 5.91541 25.1121 2.67508L25.4679 1.89144L25.4871 1.84762L25.4935 1.83344V1.83086ZM31.6899 38.6774C31.0243 41.3711 29.3642 43.8058 27.5594 44.9387L26.2039 42.7489C27.3328 42.04 28.6653 40.2395 29.2042 38.0548C29.7277 35.932 29.4538 33.6623 27.7194 31.8489L29.5626 30.0599C32.0547 32.666 32.3683 35.9204 31.6874 38.6761" fill="#1B3950"/>
</svg>
