<svg width="32" height="32" viewBox="0 0 32 32" fill="none" xmlns="http://www.w3.org/2000/svg">
<path d="M10.6377 14.6667C11.1843 14.9414 11.6203 15.416 11.9657 15.9934M11.9657 15.9934C13.2937 18.22 13.2937 22 13.2937 22C13.2937 26.6667 10.915 28 7.98033 28C6.65366 28 2.66699 27.3334 2.66699 21.3334C2.66699 12.6667 7.31633 6.66669 11.3017 6.66669C14.4883 6.66669 13.2963 13.3334 11.9657 15.9934ZM21.363 14.6667C20.8137 14.9414 20.379 15.416 20.0337 15.9934M20.0337 15.9934C18.7057 18.22 18.7057 22 18.7057 22C18.7057 26.6667 21.0843 28 24.019 28C25.3483 28 29.3337 27.3334 29.3337 21.3334C29.3337 12.6667 24.6843 6.66669 20.6977 6.66669C17.5097 6.66669 18.707 13.3334 20.0337 15.9934Z" stroke="#1B3950" stroke-width="1.5" stroke-linecap="round" stroke-linejoin="round"/>
<path d="M18.6673 9.33333L16.0007 7.556M16.0007 7.556L13.334 9.33333M16.0007 7.556V4" stroke="#1B3950" stroke-width="1.5" stroke-linecap="round"/>
</svg>
