<svg width="40" height="40" viewBox="0 0 40 40" fill="none" xmlns="http://www.w3.org/2000/svg">
<path d="M5.55566 4.08331H34.4443C35.2556 4.08343 35.916 4.7447 35.916 5.55597V34.4446C35.9159 35.2558 35.2555 35.9162 34.4443 35.9163H5.55566C4.7444 35.9163 4.08313 35.2559 4.08301 34.4446V5.55597C4.08301 4.74463 4.74432 4.08331 5.55566 4.08331Z" stroke="#1B3950" stroke-width="1.5"/>
<path d="M33.9577 16.8078C32.9088 15.3722 24.4699 20.1045 24.3877 20.1567C23.5932 20.6511 22.9632 20.8133 22.5188 20.8478C23.1143 20.0033 24.1999 18.6478 25.6199 17.66C32.5277 12.8611 32.2188 12.1822 31.9921 11.6867C31.9413 11.5783 31.8661 11.4831 31.7724 11.4085C31.6788 11.3339 31.5691 11.2819 31.4521 11.2567C30.251 10.9845 26.0754 13.7245 24.9077 14.6845C23.5888 15.7678 21.4599 17.3411 20.6032 17.97C19.6288 16.9867 20.9599 15.6278 22.0121 14.1278C26.0299 8.3989 26.7532 6.9189 25.8832 6.21223C25.7902 6.14003 25.6837 6.08704 25.5701 6.05633C25.4564 6.02562 25.3377 6.01781 25.221 6.03334C23.651 6.23001 19.1699 12.4689 18.0121 14.0289C17.0266 15.3533 14.7432 17.7456 13.9466 16.3045C13.7166 15.8878 13.6021 15.1267 13.971 14.2433C14.6266 12.6711 14.6688 8.80001 13.0166 8.43667C11.1021 8.02001 11.3877 11.8 9.31767 15.5578C8.61656 16.83 7.95434 18.0322 7.99989 20.9622C8.06322 25.0256 8.10656 26.0222 4.44434 30.7367V34.4445C4.44434 35.0567 4.94322 35.5556 5.55545 35.5556H13.2799C14.0143 34.2133 14.6221 33.1289 14.791 32.8878C15.1899 32.3189 16.9332 31.0422 18.0832 30.6878C19.4421 30.2689 21.9199 28.6367 22.5754 27.7256C23.1499 26.93 28.5721 26.8945 31.031 24.35C31.3521 24.0189 32.0199 23.3278 31.581 22.7133C31.3854 22.4367 31.0177 21.9245 28.291 23.2022C26.9543 23.8278 24.1566 24.2322 23.1388 24.0911C23.9732 23.4078 26.5343 22.4045 27.5388 22.0133C28.8777 21.4922 31.5577 20.1178 32.5488 19.2345C33.2988 18.5656 34.0666 18.3089 34.1788 17.6167C34.224 17.3426 34.1503 17.073 33.9577 16.8078Z" fill="#1B3950"/>
<path d="M12.5854 29.3133C12.6242 29.1504 12.5992 28.9789 12.5156 28.8338C12.4319 28.6888 12.2959 28.5813 12.1354 28.5333C11.9232 28.47 11.7166 28.3789 11.5854 28.2489C11.4279 28.0951 11.3039 27.9104 11.2212 27.7064C11.1386 27.5024 11.099 27.2835 11.105 27.0635C11.111 26.8435 11.1625 26.627 11.2562 26.4279C11.3499 26.2287 11.4838 26.0511 11.6495 25.9061C11.8152 25.7612 12.009 25.6521 12.2189 25.5858C12.4288 25.5194 12.6501 25.4972 12.869 25.5205C13.0879 25.5438 13.2996 25.6122 13.4907 25.7213C13.6819 25.8304 13.8485 25.9778 13.9799 26.1544C14.1788 26.4322 14.4388 26.6533 14.7443 26.8055C14.8629 26.8633 14.9717 26.9415 15.071 27.04C15.3282 27.2982 15.4725 27.6478 15.4725 28.0122C15.4725 28.3766 15.3282 28.7262 15.071 28.9844C14.9068 29.1448 14.8129 29.3638 14.8099 29.5933C14.8082 29.8798 14.6936 30.1541 14.491 30.3566C14.2819 30.5663 13.9981 30.6842 13.702 30.6847C13.4059 30.6851 13.1218 30.5679 12.9121 30.3589C12.5488 29.9944 12.5132 29.6177 12.5854 29.3133ZM10.7421 29.15C10.6669 29.2254 10.6073 29.3149 10.5666 29.4134C10.526 29.5119 10.5052 29.6174 10.5053 29.7239C10.5055 29.8305 10.5266 29.9359 10.5676 30.0343C10.6085 30.1326 10.6683 30.222 10.7438 30.2972C10.8961 30.4491 11.1026 30.5343 11.3177 30.534C11.4243 30.5338 11.5297 30.5127 11.6281 30.4718C11.7264 30.4308 11.8158 30.371 11.891 30.2955C12.0429 30.1432 12.1281 29.9367 12.1278 29.7216C12.1275 29.5064 12.0417 29.3002 11.8893 29.1483C11.737 28.9964 11.5305 28.9112 11.3154 28.9115C11.1002 28.9119 10.894 28.9976 10.7421 29.15ZM16.8043 27.0044C17.391 26.3 18.0799 25.7144 18.8121 25.1766C19.621 24.5222 20.5888 24.1189 21.4377 23.5411C22.1099 22.7178 20.861 21.6933 20.1843 22.5089C18.9754 23.8611 17.5366 25.02 15.8899 25.7955C15.3554 26.0066 15.2432 26.7744 15.7054 27.1255C15.8673 27.2551 16.0739 27.3151 16.28 27.2924C16.486 27.2697 16.6746 27.1661 16.8043 27.0044ZM11.8488 25.3177C11.9667 25.1989 12.0328 25.0383 12.0326 24.8709C12.0324 24.7035 11.9659 24.5429 11.8477 24.4244C11.2188 23.7978 10.2432 23.8689 10.1366 23.8811C9.791 23.9144 9.53878 24.2189 9.56989 24.5644C9.601 24.91 9.91211 25.1589 10.2521 25.1389C10.411 25.1266 10.7899 25.1533 10.9566 25.3189C11.015 25.3777 11.0845 25.4245 11.1612 25.4563C11.2378 25.4882 11.3199 25.5045 11.4029 25.5044C11.4859 25.5043 11.568 25.4877 11.6445 25.4557C11.7211 25.4237 11.7905 25.3768 11.8488 25.3177ZM26.1599 25.7166C26.2264 25.7106 26.2909 25.6906 26.3492 25.658C26.4075 25.6254 26.4583 25.5809 26.4983 25.5274C26.5383 25.4739 26.5666 25.4125 26.5814 25.3474C26.5962 25.2823 26.5971 25.2147 26.5841 25.1492C26.5711 25.0837 26.5445 25.0216 26.506 24.9671C26.4674 24.9125 26.4179 24.8666 26.3605 24.8324C26.3031 24.7983 26.2392 24.7765 26.1728 24.7686C26.1065 24.7607 26.0393 24.7669 25.9754 24.7866C25.1488 25.0544 24.291 25.1666 23.4266 25.2389C23.193 25.2753 22.9573 25.2969 22.721 25.3033C22.8554 25.5466 22.9443 25.8189 22.9666 26.1144C22.9747 26.2433 22.9714 26.37 22.9566 26.4944C23.9966 26.1266 25.0588 25.8311 26.1599 25.7166ZM15.3443 25.5711C16.1077 24.6277 16.9988 23.8233 17.8888 23.0166C18.8054 22.2389 19.721 21.4611 20.7443 20.8C21.2954 20.4566 21.3332 19.6166 20.8066 19.2289C20.7064 19.1519 20.592 19.0955 20.47 19.0629C20.348 19.0302 20.2207 19.022 20.0955 19.0386C19.9703 19.0552 19.8496 19.0964 19.7404 19.1597C19.6311 19.2231 19.5354 19.3074 19.4588 19.4077C17.9343 21.2866 16.2299 22.9877 14.2732 24.4111C14.1788 24.4758 14.0994 24.5601 14.0404 24.6582C13.9815 24.7564 13.9443 24.8661 13.9315 24.9798C13.9187 25.0936 13.9305 25.2088 13.9662 25.3176C14.0018 25.4264 14.0605 25.5262 14.1382 25.6103C14.2158 25.6944 14.3107 25.7608 14.4163 25.805C14.5219 25.8492 14.6358 25.8702 14.7502 25.8665C14.8646 25.8627 14.9769 25.8344 15.0794 25.7835C15.182 25.7325 15.2723 25.6601 15.3443 25.5711ZM27.8754 20.13C27.9378 20.3058 27.9497 20.4955 27.9099 20.6778L30.431 19.0844C30.7488 18.8966 30.4966 18.38 30.151 18.5189L27.3177 19.5733C27.5621 19.6711 27.771 19.8622 27.8754 20.13ZM28.7721 24.7689C29.0821 24.6178 28.9232 24.1089 28.5766 24.1678C28.4854 24.19 27.3299 24.3266 26.8121 24.4233C27.0343 24.5578 27.2043 24.7766 27.2677 25.05C27.3032 25.2305 27.2882 25.4174 27.2243 25.59L28.7721 24.7689ZM9.71878 32.5244C10.291 32.2089 11.1132 31.0222 10.4566 30.7933C10.4566 30.7933 10.191 30.7011 9.61211 30.1233C8.78434 29.2978 8.64545 28.3678 8.64545 28.3678C8.34545 26.3611 6.73211 31.0411 4.44434 32.4011V34.4444C4.44434 35.0566 4.94322 35.5555 5.55545 35.5555H7.36211C7.60656 35.1833 7.83322 33.5633 9.71878 32.5244ZM11.3566 22.2366C11.1932 21.3066 11.3199 20.2944 11.5388 19.3833C11.6021 18.73 12.1643 18.1244 11.8532 17.45C11.7257 17.1795 11.4979 16.9692 11.2181 16.8637C10.9383 16.7582 10.6284 16.7658 10.354 16.8847C10.0796 17.0037 9.86236 17.2248 9.74815 17.5012C9.63394 17.7776 9.63177 18.0876 9.74211 18.3655C9.86989 18.6611 9.92211 18.95 9.95545 19.2366C10.031 20.1055 9.93656 20.9966 9.42323 21.7422C8.37656 23.4955 11.4332 24.2811 11.3566 22.2366ZM29.791 13.4022L30.9266 12.2522C31.0543 12.1311 30.8943 11.9111 30.7388 11.9989L29.2866 12.7611C29.4538 12.8122 29.5972 12.9213 29.691 13.0689C29.7519 13.1698 29.7863 13.2844 29.791 13.4022ZM30.291 23.4789L29.1099 23.7722C29.2588 23.8549 29.3743 23.9869 29.4366 24.1455C29.4742 24.2512 29.4868 24.3642 29.4732 24.4755L30.4266 23.7633C30.5654 23.6677 30.4566 23.4322 30.291 23.4789ZM26.4054 19.9811C25.4566 20.53 24.4154 20.8878 23.3543 21.1844C22.8714 21.3311 22.3847 21.4659 21.8943 21.5889C22.1514 21.7918 22.3538 22.0557 22.483 22.3566C22.6122 22.6576 22.6642 22.986 22.6343 23.3122C23.9854 22.44 25.3732 21.6489 26.9066 21.1455C27.7943 20.8589 27.221 19.5366 26.4054 19.9811ZM9.57878 28.5733C9.61986 28.6453 9.67471 28.7085 9.74021 28.7593C9.80572 28.8101 9.88059 28.8476 9.96055 28.8694C10.0405 28.8913 10.124 28.8972 10.2062 28.8868C10.2885 28.8764 10.3679 28.8499 10.4399 28.8089C10.5119 28.7678 10.5751 28.7129 10.6259 28.6474C10.6767 28.5819 10.7141 28.5071 10.736 28.4271C10.7579 28.3471 10.7638 28.2636 10.7534 28.1814C10.743 28.0992 10.7165 28.0198 10.6754 27.9477C10.2999 27.2877 10.5332 26.65 10.651 26.4055C10.687 26.3308 10.708 26.2497 10.7127 26.1669C10.7174 26.0841 10.7058 26.0012 10.6784 25.9229C10.6511 25.8446 10.6086 25.7724 10.5534 25.7105C10.4981 25.6486 10.4313 25.5982 10.3566 25.5622C10.2819 25.5262 10.2008 25.5052 10.118 25.5005C10.0352 25.4958 9.95222 25.5074 9.87391 25.5348C9.7956 25.5621 9.72344 25.6046 9.66155 25.6598C9.59967 25.7151 9.54927 25.7819 9.51323 25.8566C9.081 26.7522 9.10434 27.7422 9.57878 28.5733ZM11.4854 12.9533C11.3288 14.0744 10.7377 15.0489 10.0954 15.9855C10.5471 15.8117 11.0487 15.82 11.4943 16.0089C11.7788 16.1289 12.0121 16.3155 12.1977 16.5366C12.1754 15.43 12.2232 14.3178 12.6943 13.32C13.131 12.3966 11.6321 11.9455 11.4854 12.9533ZM12.3199 9.88108C12.2477 10.5977 12.0288 11.2766 11.7532 11.9378C11.9432 11.8844 12.1421 11.86 12.3477 11.9022C12.5066 11.9355 12.6499 12.0022 12.7777 12.0866C12.841 11.4011 12.9566 10.7222 13.1843 10.07C13.4377 9.41442 12.3632 9.18108 12.3199 9.88108ZM17.3699 28.9255C18.5243 27.9811 19.8721 27.2544 21.3443 26.9655C21.9977 26.8889 22.2966 26.0133 21.811 25.5566C21.6551 25.401 21.444 25.3133 21.2237 25.3129C21.0034 25.3125 20.7919 25.3993 20.6354 25.5544C20.0843 26.0778 19.4532 26.4677 18.781 26.7977C18.011 27.2511 17.1043 27.3689 16.3188 27.7566C15.5566 28.4478 16.6043 29.6089 17.3699 28.9255ZM16.8499 16.7866C15.5943 19.0866 14.1277 21.2444 12.3621 23.1789C11.5688 24.0678 13.031 25.1333 13.6354 24.1122C14.9699 21.7322 16.7477 19.6844 18.5577 17.6622C18.6197 17.5497 18.6585 17.4258 18.6717 17.298C18.685 17.1702 18.6725 17.0411 18.6349 16.9182C18.5974 16.7953 18.5355 16.6812 18.4531 16.5827C18.3706 16.4842 18.2692 16.4032 18.1549 16.3446C18.0405 16.286 17.9156 16.2509 17.7874 16.2415C17.6593 16.232 17.5306 16.2484 17.4089 16.2896C17.2872 16.3308 17.175 16.3961 17.079 16.4814C16.983 16.5668 16.9051 16.6706 16.8499 16.7866ZM32.2943 17.6311L30.7221 18.0978C30.8762 18.1806 30.9956 18.3157 31.0588 18.4789C31.0976 18.5901 31.109 18.709 31.0921 18.8255L32.4288 17.9166C32.5788 17.8222 32.4632 17.5755 32.2943 17.6311ZM13.1566 32.7944C13.2416 32.6919 13.3042 32.5727 13.3403 32.4445C13.3764 32.3163 13.3852 32.1819 13.3661 32.0501C13.3471 31.9183 13.3006 31.7919 13.2296 31.6792C13.1586 31.5665 13.0648 31.4699 12.9542 31.3957C12.8436 31.3215 12.7187 31.2713 12.5875 31.2484C12.4563 31.2255 12.3217 31.2303 12.1925 31.2627C12.0633 31.295 11.9423 31.3541 11.8373 31.4361C11.7324 31.5182 11.6458 31.6213 11.5832 31.7389C10.8568 33.0526 10.0609 34.3266 9.19878 35.5555H11.1277C11.7677 34.6111 12.421 33.6744 13.1566 32.7944ZM28.8077 13.2544L26.1832 14.7566C26.3158 14.7856 26.4411 14.8411 26.5515 14.92C26.6619 14.9989 26.7551 15.0995 26.8254 15.2155C26.9254 15.3833 26.9532 15.5678 26.9488 15.75L29.1766 13.7666C29.4588 13.5289 29.1254 13.0611 28.8077 13.2544ZM20.8477 11.93C20.3254 12.8455 19.6332 13.64 18.8921 14.3955C18.5912 14.7515 18.2628 15.0833 17.9099 15.3878C18.2305 15.4356 18.5343 15.562 18.7942 15.7557C19.0542 15.9494 19.2622 16.2043 19.3999 16.4977C20.0832 15.1355 20.8432 13.82 21.8621 12.6844C22.4921 11.99 21.3277 11.1311 20.8477 11.93ZM25.281 15.4333C24.431 16.2311 23.4488 16.8633 22.4332 17.4433C21.9367 17.7427 21.4325 18.0291 20.921 18.3022C21.2254 18.4388 21.4901 18.6506 21.6901 18.9176C21.8901 19.1847 22.0189 19.4983 22.0643 19.8289C23.2799 18.5678 24.5532 17.3766 26.041 16.4455C26.8266 15.9578 25.9654 14.8178 25.281 15.4333ZM23.5566 8.76553L21.4843 10.9678C21.6198 10.9567 21.756 10.9734 21.8848 11.0168C22.0135 11.0601 22.1321 11.1293 22.2332 11.22C22.3777 11.3511 22.4577 11.52 22.5066 11.6955L24.0588 9.14886C24.2599 8.83886 23.8043 8.48775 23.5566 8.76553ZM24.8877 7.18775L23.8499 8.14108C24.0225 8.14521 24.1882 8.21013 24.3177 8.32442C24.4066 8.40553 24.4643 8.50442 24.5043 8.60997L25.1388 7.37997C25.2232 7.22886 25.0132 7.06553 24.8877 7.18775Z" fill="white"/>
</svg>
