<svg width="34" height="34" viewBox="0 0 34 34" fill="none" xmlns="http://www.w3.org/2000/svg">
<path d="M1 20.4595H33M12.0011 26.9996V29.5405C12.0011 30.458 11.6366 31.338 10.9878 31.9867C10.3391 32.6355 9.45913 33 8.54162 33H7.50378M21.9989 26.9996V29.5405C21.9989 30.458 22.3634 31.338 23.0122 31.9867C23.6609 32.6355 24.5409 33 25.4584 33H26.4962M7.50032 33H26.4997M1 7.05405C1 5.44842 1.63784 3.90855 2.77319 2.77319C3.90855 1.63784 5.44842 1 7.05405 1H26.9459C28.5516 1 30.0915 1.63784 31.2268 2.77319C32.3622 3.90855 33 5.44842 33 7.05405V20.9455C33 22.5511 32.3622 24.091 31.2268 25.2264C30.0915 26.3617 28.5516 26.9996 26.9459 26.9996H7.05405C5.44842 26.9996 3.90855 26.3617 2.77319 25.2264C1.63784 24.091 1 22.5511 1 20.9455V7.05405Z" stroke="#1B3950" stroke-width="1.5" stroke-linecap="round" stroke-linejoin="round"/>
</svg>
