<svg width="32" height="32" viewBox="0 0 32 32" fill="none" xmlns="http://www.w3.org/2000/svg">
<path fill-rule="evenodd" clip-rule="evenodd" d="M5.99961 4H7.33294C7.33294 4 5.25428 14.3373 5.33361 16.6693C5.43228 19.6013 8.00028 28 8.00028 28H6.66694C6.66694 28 4.09828 19.5593 4.00161 16.7133C3.93428 14.7067 6.00028 4 6.00028 4M26.0009 4H24.6676C24.6676 4 26.7463 14.3373 26.6676 16.6693C26.5683 19.6013 24.0003 28 24.0003 28H25.3336C25.3336 28 27.9023 19.5593 27.9989 16.7133C28.0663 14.7067 26.0009 4 26.0009 4ZM15.3336 15.3333V22C15.3336 22.1768 15.4038 22.3464 15.5289 22.4714C15.6539 22.5964 15.8235 22.6667 16.0003 22.6667C16.1771 22.6667 16.3467 22.5964 16.4717 22.4714C16.5967 22.3464 16.6669 22.1768 16.6669 22V15.3333H18.0003V22C18.0003 22.5304 17.7896 23.0391 17.4145 23.4142C17.0394 23.7893 16.5307 24 16.0003 24C15.4698 24 14.9611 23.7893 14.5861 23.4142C14.211 23.0391 14.0003 22.5304 14.0003 22V15.3333H15.3336ZM13.3336 16.6667V17.3333C13.3336 17.5101 13.4038 17.6797 13.5289 17.8047C13.6539 17.9298 13.8235 18 14.0003 18V19.3333C13.4698 19.3333 12.9611 19.1226 12.5861 18.7475C12.211 18.3725 12.0003 17.8638 12.0003 17.3333V16.6667H13.3336ZM18.6669 17.3333V16.6667H20.0003V17.3333C20.0003 17.8638 19.7896 18.3725 19.4145 18.7475C19.0394 19.1226 18.5307 19.3333 18.0003 19.3333V18C18.1771 18 18.3467 17.9298 18.4717 17.8047C18.5967 17.6797 18.6669 17.5101 18.6669 17.3333Z" fill="#1B3950"/>
<path fill-rule="evenodd" clip-rule="evenodd" d="M15.334 28V23.3333H16.6673V28H15.334Z" fill="#1B3950"/>
</svg>
